<svg xmlns="http://www.w3.org/2000/svg" xmlns:xlink="http://www.w3.org/1999/xlink" width="584.817" height="369.087" viewBox="0 0 584.817 369.087"><defs><style>.a{fill:#f5d100;}.b{fill:#eb8175;}.c{opacity:0.101;}.d{fill:url(#a);}.e{opacity:0;}.f{fill:#1a987c;}.g{fill:#136e59;}.h{fill:#167e67;}.i{fill:#16362b;}.j{fill:#16533f;}.k{fill:#1a6c50;}.l{fill:#08bd80;}.l,.m{opacity:0.16;}.m{fill:#5571e9;}.n{clip-path:url(#b);}.o{fill:#fff;}.p{fill:#14103d;}.q{fill:#231c61;}.r{fill:#e1ad9d;}.s{fill:#c8c6f2;}.t{fill:#d8d7fd;}.u{fill:#091218;}.v{fill:#1b2934;}.w{fill:#e16c5f;}.x{clip-path:url(#c);}.ad,.ae,.af,.ag,.ai,.aj,.ak,.al,.y,.z{fill:none;}.ad,.y{stroke:#f1ab00;}.ad,.af,.ai,.aj,.y{stroke-miterlimit:10;}.y{stroke-width:0.28px;}.ae,.z{stroke:#fff;}.ae,.ak,.al,.z{stroke-linecap:round;stroke-linejoin:round;}.z{stroke-width:1.121px;}.aa{fill:#334fbe;}.ab{fill:#4265d1;}.ac{clip-path:url(#d);}.ad{stroke-width:0.283px;}.ae{stroke-width:1.133px;}.af,.ag{stroke:#1a987c;}.af,.ag,.ak,.al{stroke-width:2.649px;}.ah{fill:#134c39;}.ai{stroke:#134c39;stroke-width:2.162px;}.aj{stroke:#231c61;stroke-width:1.114px;}.ak{stroke:#167e67;}.al{stroke:#167958;}.am{clip-path:url(#e);}.an{fill:#fafafa;}.ao{fill:#e8c400;}.ap{clip-path:url(#f);}</style><linearGradient id="a" x1="0.078" y1="-0.052" x2="1" y2="1.203" gradientUnits="objectBoundingBox"><stop offset="0" stop-color="#1a987c" stop-opacity="0.235"/><stop offset="1" stop-color="#08bd80"/></linearGradient><clipPath id="b"><rect class="a" width="275.81" height="30.447"/></clipPath><clipPath id="c"><path class="b" d="M407.22,212.169a9.08,9.08,0,1,0,12.071-4.379A9.078,9.078,0,0,0,407.22,212.169Z" transform="translate(-406.363 -206.933)"/></clipPath><clipPath id="d"><path class="b" d="M510.068,292.18a9.184,9.184,0,1,0,12.923-1.287A9.183,9.183,0,0,0,510.068,292.18Z" transform="translate(-507.99 -288.814)"/></clipPath><clipPath id="e"><path class="a" d="M419.827,381.093l16.614-42.939a2.4,2.4,0,0,1,4.482,0l16.615,42.939Z" transform="translate(-419.827 -336.617)"/></clipPath><clipPath id="f"><path class="a" d="M563.184,381.172,579.8,338.231a2.4,2.4,0,0,1,4.48,0l16.615,42.941Z" transform="translate(-563.184 -336.696)"/></clipPath></defs><g transform="translate(0 1.324)"><g transform="translate(0 8.166)"><g class="c" transform="translate(0 0)"><path class="d" d="M883.165,406.589c6.269-20.318,7.733-41.938,3.238-62.72-7.031-32.514-29.683-71.873-95.049-88.859C667.6,222.855,624.634,128.821,508.875,158.766c0,0-62.121,11.289-91.523,114.082s-144.6,104.544-104.937,194.045c6.482,14.63,23.939,30.587,49,45.662l469.446-1.578C863.3,471.973,873.4,438.231,883.165,406.589Z" transform="translate(-304.194 -152.96)"/></g><g class="e" transform="translate(82.828 117.085)"><path class="f" d="M664.373,285.566H646.76V266.3a20.394,20.394,0,0,0-15.77-19.853V222.533h-6.483v23.458A20.4,20.4,0,0,0,605.958,266.3v19.835H588.437v22.1h-1.18v41.075l-31.846-.229v-49.09H518.92v35.975h-25.6v34.951H462.374v92.513h102.8v-.013h22.081v.013H716.164V346.765H664.327Z" transform="translate(-279.001 -222.533)"/><path class="f" d="M375.343,318.845v-45.99h17.241v-24.6h6.482v24.6h15.883v45.99h17.822V346.4h28.4V252.539h59.294v193.32H353.412V318.845Z" transform="translate(-353.412 -204.965)"/></g></g><g transform="translate(139.904 163.475)"><g transform="translate(0)"><g transform="translate(0 183.655)"><path class="f" d="M676.119,372.923l-270.244.21a18.533,18.533,0,0,1-18.549-18.517h0l307.31-.241h0A18.532,18.532,0,0,1,676.119,372.923Z" transform="translate(-387.326 -354.376)"/><path class="g" d="M676.114,366.542l-270.244.212a18.52,18.52,0,0,1-17.391-12.139l-1.153,0a18.533,18.533,0,0,0,18.549,18.517l270.244-.21a18.532,18.532,0,0,0,18.517-18.547h-1.151A18.52,18.52,0,0,1,676.114,366.542Z" transform="translate(-387.326 -354.376)"/><path class="g" d="M505.693,360.646l-34.915.027a6.205,6.205,0,0,1-6.208-6.2h0l47.323-.037h0A6.206,6.206,0,0,1,505.693,360.646Z" transform="translate(-334.576 -354.335)"/></g><g transform="translate(15.686)"><path class="h" d="M672.456,428.913l-275.68.215-.13-166.4a17.285,17.285,0,0,1,17.27-17.3l241.111-.187a17.285,17.285,0,0,1,17.3,17.27Z" transform="translate(-396.647 -245.246)"/><rect class="i" width="246.967" height="154.931" transform="translate(14.414 14.469)"/><rect class="j" width="246.967" height="14.81" transform="translate(14.469 154.589)"/><rect class="k" width="246.967" height="7.352" transform="translate(14.357 14.469)"/><g transform="translate(14.418 14.391)"><path class="l" d="M487.515,253.886l-82.3,82.429.057,72.566h.178l154.81-155.052Z" transform="translate(-405.214 -253.775)"/><path class="l" d="M424.2,408.885l36.47-.035L615.476,253.8l-36.47.035Z" transform="translate(-392.251 -253.797)"/><path class="m" d="M558.333,379.98l29.027-29.072-.043-55.007-87.132,84.114Z" transform="translate(-340.359 -225.044)"/></g></g></g><g transform="translate(15.686 80.643)"><rect class="a" width="275.81" height="30.447"/><g class="n"><path class="o" d="M426.722,336.566H402.991l20.427-46.729h23.731Z" transform="translate(-392.314 -295.437)"/><path class="o" d="M456.794,336.566H433.063l20.427-46.729h23.731Z" transform="translate(-371.778 -295.437)"/><path class="o" d="M486.866,336.566H463.135l20.427-46.729h23.731Z" transform="translate(-351.242 -295.437)"/><path class="o" d="M516.938,336.566H493.207l20.427-46.729h23.732Z" transform="translate(-330.705 -295.437)"/><path class="o" d="M547.01,336.566H523.279l20.427-46.729h23.731Z" transform="translate(-310.169 -295.437)"/></g></g></g><g transform="translate(120.5 92.398)"><g transform="translate(0 58.036)"><g transform="translate(0 29.789)"><g transform="translate(0 10.372)"><path class="p" d="M388.691,262.315l-5.392.207-3.155-1a3.428,3.428,0,0,0-3.879,1.353l-.4.591,15.762,8.706,3.048-6.538Z" transform="translate(-375.748 -261.361)"/><path class="p" d="M391.681,271.919,375.8,263.145l.555-1a.408.408,0,0,1,.557-.16l15.526,8.576-.754,1.363" transform="translate(-375.796 -260.973)"/></g><path class="b" d="M389.472,269.841l4.163-7.206-4.163-7.437-5.985,11.326Z" transform="translate(-370.544 -255.198)"/></g><path class="p" d="M422.618,240.478s-22.463-6.446-24.626-.38-15.267,32.9-15.267,32.9l9.781,5.1,14.67-25.479,19.741-1.718Z" transform="translate(-371.064 -237.497)"/><g transform="translate(22.778 1.949)"><g transform="translate(0 34.469)"><g transform="translate(0 12.875)"><path class="p" d="M399.816,266.787l-4.4,2.8-3.245.655a3.427,3.427,0,0,0-2.738,3.065l-.062.709,18.007-.027-.5-7.2Z" transform="translate(-389.302 -266.787)"/><path class="p" d="M407.481,271.77l-18.148.027,0-1.148a.41.41,0,0,1,.411-.411l17.738-.029,0,1.56" transform="translate(-389.331 -264.449)"/></g><path class="b" d="M402.639,272.018l.575-12.073-7.172-.809-.462,12.875Z" transform="translate(-385.064 -259.137)"/></g><path class="q" d="M417.98,238.655l-21.171.964s-3.044.168-2.841,7.3.185,35.809.185,35.809l10.168.352,1.947-30.043,21.191-.261a11.4,11.4,0,0,0,10.39-6.72,8.3,8.3,0,0,0,.584-5.178Z" transform="translate(-386.171 -238.655)"/></g></g><g transform="translate(18.899 25.048)"><g transform="translate(8.322 0.274)"><g transform="translate(0 26.763)"><path class="r" d="M399.246,237.591c0,2.009-1.358,2.314-3.367,2.317s-3.9-.293-3.908-2.3a3.638,3.638,0,1,1,7.275-.015Z" transform="translate(-391.971 -233.961)"/><path class="r" d="M400.33,238.959l-4.2.008a2,2,0,0,1-2-1.993h0a2,2,0,0,1,1.993-2l4.2-.008a2,2,0,0,1,2,1.993h0A2,2,0,0,1,400.33,238.959Z" transform="translate(-390.5 -233.275)"/></g><path class="s" d="M398.286,250.932l-1.4-6.881,17.285-1.883,3.458-20.195c.348-1.836,3.006-4.113,4.842-3.765l-.528-.15a4.118,4.118,0,0,1,3.172,4.317l-3.364,24.158a3.384,3.384,0,0,1-2.523,2.657Z" transform="translate(-388.617 -218.058)"/></g><path class="t" d="M425.064,218.765A3.683,3.683,0,0,1,426.1,219l.173.067a8.532,8.532,0,0,1,5.111,7.326l-2.7,28.653c-17.909-.155-20.454-2.218-20.454-2.218l1.424-29.311c.217-2.763,1.486-5.365,4.635-5.626h0Z" transform="translate(-372.544 -217.895)"/><g transform="translate(25.53 4.189)"><g transform="translate(0 25.343)"><path class="b" d="M409.463,238.832c.138,2-1.2,2.4-3.206,2.534s-3.915-.032-4.052-2.036a3.638,3.638,0,1,1,7.258-.5Z" transform="translate(-402.196 -235.443)"/><path class="b" d="M410.678,240.191l-4.194.288a2,2,0,0,1-2.131-1.855h0a2,2,0,0,1,1.856-2.129l4.194-.288a2,2,0,0,1,2.129,1.855h0A2,2,0,0,1,410.678,240.191Z" transform="translate(-400.725 -234.924)"/></g><path class="t" d="M408.783,251.432l-1.856-6.774,18.837-3.028-1.07-17.516c.226-1.855,2.258-3.94,4.113-3.714h0a4.119,4.119,0,0,1,3.453,4.1l1.356,20.986a3.383,3.383,0,0,1-2.341,2.819Z" transform="translate(-398.965 -220.384)"/></g><g transform="translate(0 11.848)"><path class="u" d="M389.3,225.008l20.553,1.937a1.44,1.44,0,0,1,1.294,1.266l2.156,18.52a1.439,1.439,0,0,1-1.563,1.6l-20.893-1.971a1.437,1.437,0,0,1-1.3-1.291l-1.814-18.488A1.436,1.436,0,0,1,389.3,225.008Z" transform="translate(-386.545 -224.89)"/><path class="v" d="M388.6,224.942l20.553,1.937a1.437,1.437,0,0,1,1.292,1.266l2.158,18.52a1.439,1.439,0,0,1-1.563,1.6l-20.895-1.971a1.439,1.439,0,0,1-1.3-1.291l-1.816-18.488A1.438,1.438,0,0,1,388.6,224.942Z" transform="translate(-387.026 -224.935)"/><path class="u" d="M402.991,237.989l14.044,1.324a.779.779,0,0,1,.7.848h0a.778.778,0,0,1-.848.7L402,239.514Z" transform="translate(-376.801 -216.02)"/><path class="o" d="M396.783,232.614a2.25,2.25,0,1,1-2.03-2.452A2.252,2.252,0,0,1,396.783,232.614Z" transform="translate(-383.429 -221.372)"/></g><path class="s" d="M424.038,225l.464,13.168-17.574,3.337,15.487-4.837Z" transform="translate(-373.435 -213.042)"/></g><g transform="translate(48.848 0)"><g transform="translate(2.593 6.6)"><path class="b" d="M411.556,218.987l1.175,3.154a3.091,3.091,0,0,0,2.686,2h0a3.089,3.089,0,0,0,3.049-4.291l-2.06-4.842Z" transform="translate(-402.817 -201.417)"/><path class="w" d="M412.728,222.586s5.787-1.094,4.938-6.154-6.294-1.112-6.294-1.112l.53,5.052Z" transform="translate(-402.942 -202.207)"/><path class="b" d="M407.22,212.169a9.08,9.08,0,1,0,12.071-4.379A9.078,9.078,0,0,0,407.22,212.169Z" transform="translate(-406.363 -206.933)"/><g class="x"><path class="q" d="M419.869,219.367s-1.429,7.275,3.918,7.433,2.435-13.643,2.435-13.643l-8.46-8.515-12.947,3.187L406.1,216.2s2.058,1.092,13.189-.742Z" transform="translate(-407.42 -208.497)"/><path class="q" d="M410.621,210.011l4.253,6.221,3.667-4.051Z" transform="translate(-403.455 -204.831)"/></g><path class="b" d="M413.009,212.991a2.567,2.567,0,1,0,3.413-1.239A2.567,2.567,0,0,0,413.009,212.991Z" transform="translate(-401.989 -203.807)"/></g><path class="a" d="M405.99,217.178s-1.962-7.157,2.678-11.587a9.31,9.31,0,0,1,13.478.639c1.6,1.905,2.878,4.773,3,9.084Z" transform="translate(-404.306 -203.011)"/><path class="y" d="M406.432,214.035l-.056-4.468a2.1,2.1,0,0,1,2-2.127h0a2.1,2.1,0,0,1,2.191,1.892l.448,4.458" transform="translate(-403.761 -199.988)"/><line class="z" x1="20.836" y2="2" transform="translate(0 12.303)"/></g></g><g transform="translate(300.225 221.444)"><g transform="translate(15.2 75.47)"><g transform="translate(31.578 5.845)"><path class="b" d="M532.038,353.776l4.671,4.525-5.324,2.864-4.561-4.468Z" transform="translate(-499.162 -310.414)"/><path class="p" d="M510.387,337.572l3.122,13.813a21.945,21.945,0,0,0,3.553,7.857L537.606,377.7l8.127-6.619L528.19,352.506l-6.427-24.5Z" transform="translate(-510.387 -328.01)"/><g transform="translate(27.82 46.192)"><path class="p" d="M531.164,359.886l-1.683,5.368-1.922,2.676a3.411,3.411,0,0,0,.079,4.088l.436.559,13.108-12.215-5.241-4.9Z" transform="translate(-526.918 -355.458)"/><path class="p" d="M541.262,358.855l-13.212,12.31-1.058-1.135,13.212-12.31,1.057,1.135" transform="translate(-526.867 -353.913)"/></g></g><path class="b" d="M506.381,359.381l-1.752,5.85-6.017-1.613,1.76-5.744Z" transform="translate(-486.85 -301.772)"/><path class="q" d="M514.86,324.537,498.007,381.5l10.634,2.656,9.486-28.557,11.652-18.685a25.718,25.718,0,0,0,1.666-2.61,11.042,11.042,0,0,0,1.333-5.443l-.04-3.7Z" transform="translate(-487.263 -324.537)"/><g transform="translate(0 61.283)"><path class="p" d="M503.7,360.952l-5.316,1.964-3.317.115a3.435,3.435,0,0,0-3.211,2.58l-.177.692,17.81,2.93.683-7.2Z" transform="translate(-491.587 -360.952)"/><path class="p" d="M509.574,367.772l-17.951-2.953.254-1.542,17.951,2.953-.254,1.542" transform="translate(-491.623 -359.364)"/></g></g><g transform="translate(0 0)"><path class="aa" d="M496.809,290.156,490,300.783l3.264,2.344,7.049-11.243Z" transform="translate(-477.533 -272.546)"/><path class="ab" d="M493.022,279.692s3.147,13.17,19.094,18.357a1.254,1.254,0,0,1,.875,1.015c.2,1.525.205,4.823-3.322,5.8a1.272,1.272,0,0,1-1-.158c-2.437-1.526-14.436-8.541-26.08-6.518Z" transform="translate(-482.591 -279.692)"/><path class="aa" d="M493.022,279.692s-2.923,13.138-10.431,18.5C482.591,298.187,483.65,286.666,493.022,279.692Z" transform="translate(-482.591 -279.692)"/><g transform="translate(10.169 23.972)"><path class="b" d="M488.71,297.512a5.4,5.4,0,0,0,3.914,5.862,4.469,4.469,0,0,0,5.273-3.484,5.4,5.4,0,0,0-3.914-5.862A4.468,4.468,0,0,0,488.71,297.512Z" transform="translate(-488.634 -293.937)"/><path class="b" d="M499.451,302.28l-4.722-4.933-3.084,3.8,7.807,5.722" transform="translate(-486.578 -291.608)"/><path class="s" d="M497.863,297.568l-4.992,7.42,13.647,12.492a7.213,7.213,0,0,0,2.565.247l18.02-2.336a5.148,5.148,0,0,0,4.9-5.385h0c-.135-2.839.411-6.949-2.43-6.814l-20.935,4.3Z" transform="translate(-485.74 -291.457)"/></g><g transform="translate(41.672 35.677)"><path class="t" d="M528.386,312.324a10.348,10.348,0,0,0-4.645-9.973c-1.5-.961-2.987-1.611-4.061-1.429-3.593.606-7.289,2.235-8.869,7.087-2.689,8.251-3.458,32.637-3.458,32.637l19.316.66Z" transform="translate(-507.353 -300.892)"/><path class="s" d="M515.615,308.05l5.807,21.343,1.174-18.107Z" transform="translate(-501.711 -296.004)"/></g><g transform="translate(51.719 37.858)"><g transform="translate(18.766 34.999)"><g transform="translate(1.289 8.477)"><path class="b" d="M532.714,336.527a5.4,5.4,0,0,0,.3-7.043,4.466,4.466,0,0,0-6.311-.3,5.4,5.4,0,0,0-.3,7.043A4.47,4.47,0,0,0,532.714,336.527Z" transform="translate(-525.24 -328.022)"/></g><path class="b" d="M524.474,324.765l3.522,8.69,4.729-1.243-2.925-9.227" transform="translate(-524.474 -322.985)"/></g><path class="t" d="M532.315,345.671l9.672-2.125-6.56-22.435a7.186,7.186,0,0,0-1.158-2.3l-12.041-14.99c-1.628-2.332-4.372-1.915-6.7-.289h0a5.15,5.15,0,0,0-1.276,7.167l11.6,13.944Z" transform="translate(-513.323 -302.188)"/></g></g><g transform="translate(40.76 9.033)"><g transform="translate(1.984 6.319)"><path class="b" d="M511.991,300.259l.367,3.383a3.122,3.122,0,0,0,2.134,2.63h0a3.124,3.124,0,0,0,4.059-3.445l-.815-5.261Z" transform="translate(-505.258 -282.838)"/><path class="w" d="M512.29,304.353s5.966-.2,6.393-5.367-5.914-2.094-5.914-2.094l-.737,5.082Z" transform="translate(-505.23 -283.919)"/><path class="b" d="M510.068,292.18a9.184,9.184,0,1,0,12.923-1.287A9.183,9.183,0,0,0,510.068,292.18Z" transform="translate(-507.99 -288.814)"/><g class="ac"><path class="q" d="M520.3,301.923s-3.213,6.774,1.989,8.261,5.786-12.768,5.786-12.768L521.9,286.962l-13.485-.1-.825,8.526s1.747,1.584,13.113,2.558Z" transform="translate(-508.263 -290.147)"/><path class="q" d="M512.908,291.715l2.62,7.157,4.6-3.059Z" transform="translate(-504.632 -286.834)"/></g><path class="b" d="M514.8,295a2.6,2.6,0,1,0,3.654-.363A2.6,2.6,0,0,0,514.8,295Z" transform="translate(-503.741 -285.238)"/></g><path class="a" d="M507.823,297.376s-.451-7.491,5.066-10.907a9.417,9.417,0,0,1,13.207,3.443c1.181,2.218,1.851,5.323,1.069,9.614Z" transform="translate(-506.127 -285.06)"/><path class="ad" d="M508.413,294.924l.877-4.433a2.128,2.128,0,0,1,2.428-1.686h0a2.126,2.126,0,0,1,1.774,2.327l-.486,4.507" transform="translate(-505.717 -282.521)"/><line class="ae" x1="21.038" y1="2.366" transform="translate(0 12.101)"/></g></g><g transform="translate(251.924)"><g transform="translate(205.516 70.081)"><line class="af" x1="21.767" y2="21.459" transform="translate(11.221 229.311)"/><line class="af" x1="21.767" y2="21.459" transform="translate(11.221 206.38)"/><line class="af" x1="21.767" y2="21.459" transform="translate(11.221 183.449)"/><line class="af" x1="21.767" y2="21.459" transform="translate(11.221 160.518)"/><line class="af" x1="21.767" y2="21.459" transform="translate(11.221 137.587)"/><line class="af" x1="21.767" y2="21.459" transform="translate(11.221 114.656)"/><line class="af" x1="21.767" y2="21.459" transform="translate(11.221 91.724)"/><line class="af" x1="21.767" y2="21.459" transform="translate(11.221 68.793)"/><line class="af" x1="21.767" y2="21.459" transform="translate(11.221 45.862)"/><line class="af" x1="21.767" y2="21.459" transform="translate(11.221 22.931)"/><line class="af" x1="21.767" y2="21.459" transform="translate(11.221)"/><line class="af" x2="21.767" transform="translate(11.221 227.839)"/><line class="af" x2="21.767" transform="translate(11.221 204.908)"/><line class="af" x2="21.767" transform="translate(11.221 181.976)"/><line class="af" x2="21.767" transform="translate(11.221 159.045)"/><line class="af" x2="21.767" transform="translate(11.221 136.114)"/><line class="af" x2="21.767" transform="translate(11.221 113.183)"/><line class="af" x2="21.767" transform="translate(11.221 90.252)"/><line class="af" x2="21.767" transform="translate(11.221 67.321)"/><line class="af" x2="21.767" transform="translate(11.221 44.39)"/><line class="af" x2="21.767" transform="translate(11.221 21.459)"/><path class="ag" d="M0,253.317V0" transform="translate(11.221 3.667)"/><path class="ag" d="M0,253.317V0" transform="translate(32.988 3.667)"/><path class="ah" d="M0,0H43.347V45.038H0Z" transform="translate(0 250.77)"/></g><g transform="translate(0 0)"><g transform="translate(208.669 30.856)"><path class="h" d="M4.3,0H32.832a4.3,4.3,0,0,1,4.3,4.3V38.592a4.3,4.3,0,0,1-4.3,4.3H4.3a4.3,4.3,0,0,1-4.3-4.3V4.3A4.3,4.3,0,0,1,4.3,0Z"/><path class="f" d="M0,0H16.809a3.259,3.259,0,0,1,3.259,3.259v13.55a3.259,3.259,0,0,1-3.259,3.259H0a0,0,0,0,1,0,0V0A0,0,0,0,1,0,0Z" transform="translate(3.383 10.342)"/></g><g transform="translate(0 70.081)"><line class="ai" x2="17.412" y2="50.583" transform="translate(73.128 6.008)"/><line class="ai" x1="33.956" y2="45.862" transform="translate(27.06)"/><g transform="translate(0 13.361)"><rect class="a" width="80.777" height="80.777" rx="6.838" transform="matrix(-0.607, -0.794, 0.794, -0.607, 49.068, 113.234)"/><rect class="aj" width="66.091" height="66.091" rx="5.595" transform="matrix(-0.607, -0.794, 0.794, -0.607, 50.44, 102.94)"/><g transform="translate(49.2 34.468)"><path class="ah" d="M493.52,257.441c-.909,6.812-11.245,5.434-10.338-1.378C484.1,249.19,494.435,250.569,493.52,257.441Zm4.446-38.057-4.056,28.631-8.694-1.16c1.284-9.631,2.354-18.993,3.647-28.685Z" transform="translate(-483.126 -218.171)"/></g></g></g><g transform="translate(53.603)"><g transform="translate(0 51.239)"><circle class="ah" cx="14.557" cy="14.557" r="14.557"/><path class="h" d="M508.862,191.381a10.293,10.293,0,1,1-10.293-10.293A10.292,10.292,0,0,1,508.862,191.381Z" transform="translate(-484.012 -176.824)"/></g><g transform="translate(14.557)"><line class="af" y2="30.856" transform="translate(57.083)"/><line class="af" y2="30.856" transform="translate(29.413)"/><line class="af" y2="30.856" transform="translate(84.663)"/><line class="af" y2="30.856" transform="translate(115.306)"/><line class="af" y2="30.856" transform="translate(143.892)"/><line class="af" y2="30.856" transform="translate(173.529)"/><line class="af" y2="30.856" transform="translate(202.641)"/><line class="af" y1="30.856" x2="29.112" transform="translate(27.972)"/><line class="af" y1="30.856" x2="29.112" transform="translate(57.083)"/><line class="af" y1="30.856" x2="29.112" transform="translate(86.195)"/><line class="af" y1="30.856" x2="29.112" transform="translate(115.306)"/><line class="af" y1="30.856" x2="29.112" transform="translate(144.418)"/><line class="af" y1="30.856" x2="29.112" transform="translate(173.529)"/><path class="ak" d="M494.392,178.963H731.744l-31.959-30.856H518.945Z" transform="translate(-494.392 -148.107)"/><line class="al" y2="34.94" transform="translate(0 30.856)"/></g></g></g></g><g transform="translate(191.563 317.243)"><g transform="translate(0 0)"><g transform="translate(3.036)"><path class="a" d="M419.827,381.093l16.614-42.939a2.4,2.4,0,0,1,4.482,0l16.615,42.939Z" transform="translate(-419.827 -336.617)"/><g class="am"><rect class="an" width="29.5" height="9.114" transform="translate(3.848 10.768)"/><rect class="an" width="33.365" height="9.114" transform="translate(2.237 27.992)"/></g></g><rect class="ao" width="43.973" height="3.619" transform="translate(0 44.476)"/></g><g transform="translate(241.256 0.133)"><g transform="translate(3.036)"><path class="a" d="M563.184,381.172,579.8,338.231a2.4,2.4,0,0,1,4.48,0l16.615,42.941Z" transform="translate(-563.184 -336.696)"/><g class="ap"><rect class="an" width="29.5" height="9.114" transform="translate(3.849 10.768)"/><rect class="an" width="33.365" height="9.114" transform="translate(2.238 27.992)"/></g></g><rect class="ao" width="43.973" height="3.619" transform="translate(0 44.476)"/></g></g></g></svg>