<svg xmlns="http://www.w3.org/2000/svg" xmlns:xlink="http://www.w3.org/1999/xlink" width="1920" height="1146" viewBox="0 0 1920 1146"><defs><style>.a,.h{fill:#fff;}.a{stroke:#707070;}.b{clip-path:url(#a);}.c{opacity:0.678;}.d{fill:url(#b);}.e,.h{stroke:rgba(8,189,128,0.47);}.e{fill:url(#c);}.f{fill:#e9f9f3;}.f,.g{stroke:rgba(8,189,128,0.19);}.g{fill:#f4f4ff;}.h{opacity:0.432;}</style><clipPath id="a"><rect class="a" width="1920" height="1146"/></clipPath><linearGradient id="b" x1="0.933" y1="-0.118" x2="0.445" y2="0.78" gradientUnits="objectBoundingBox"><stop offset="0" stop-color="#08bd80" stop-opacity="0.149"/><stop offset="1" stop-color="#08bd80" stop-opacity="0.012"/></linearGradient><linearGradient id="c" x1="0.933" y1="-0.118" x2="0.445" y2="0.78" gradientUnits="objectBoundingBox"><stop offset="0" stop-color="#08bd80" stop-opacity="0.149"/><stop offset="1" stop-color="#fafafa" stop-opacity="0.012"/></linearGradient></defs><g class="b"><g class="c" transform="translate(401 -34.106)"><path class="d" d="M1488.84,0H-57.245s68.77,91.707,178.359,127.994,166.754,41.1,252.441,50.338c16.459,2.173,72.39,6.3,142.85,8.229,58.521,1.6,140.338,2.83,186.146,6.6,88.942,10.928,187.421,20.282,231.727,96.553,24.18,40.391,15.477,96.574,13.477,130.908s-41.889,152.219-41.889,152.219-48.254,142.4,41.889,258.295c156.053,159.507,405.406,46.322,538.5-99.459S1488.84,0,1488.84,0Z" transform="translate(57.245 25.493)"/><path class="e" d="M28.634,54.972a4,4,0,0,0,6.941,0l28.1-48.979A4,4,0,0,0,60.207,0H4A4,4,0,0,0,.531,5.993Z" transform="translate(1041.714 74.084) rotate(-92.98)"/></g><path class="f" d="M28.938,55.558a4.044,4.044,0,0,0,7.015,0l28.4-49.5A4.044,4.044,0,0,0,60.847,0H4.044A4.044,4.044,0,0,0,.537,6.057Z" transform="translate(932.611 396.692) rotate(-92.98)"/><path class="g" d="M19.109,36.686a2.67,2.67,0,0,0,4.632,0L42.5,4A2.67,2.67,0,0,0,40.18,0H2.67A2.67,2.67,0,0,0,.354,4Z" transform="matrix(-0.966, 0.259, -0.259, -0.966, 944.516, 544.569)"/><path class="h" d="M28.634,2.01a4,4,0,0,1,6.941,0l28.1,48.98a4,4,0,0,1-3.471,5.993H4A4,4,0,0,1,.531,50.99Z" transform="translate(1717 320.122) rotate(-87.02)"/></g></svg>